<?xml version="1.0" standalone="no"?><!DOCTYPE svg PUBLIC "-//W3C//DTD SVG 1.1//EN" "http://www.w3.org/Graphics/SVG/1.1/DTD/svg11.dtd"><svg t="1680592264308" class="icon" viewBox="0 0 1024 1024" version="1.1" xmlns="http://www.w3.org/2000/svg" p-id="7538" width="200" height="200" xmlns:xlink="http://www.w3.org/1999/xlink"><path d="M436.61 430.188m-27.788 0a27.788 27.788 0 1 0 55.576 0 27.788 27.788 0 1 0-55.576 0Z" fill="#FFC34C" p-id="7539"></path><path d="M578.466 288.042l21.344-21.344c4.756-4.756 4.628-12.558-0.36-17.07-92.204-83.388-233.476-83.388-325.68 0-4.988 4.512-5.118 12.312-0.36 17.07l21.344 21.344c4.452 4.452 11.578 4.594 16.284 0.41 71.406-63.474 179.74-63.474 251.146 0 4.704 4.184 11.83 4.042 16.282-0.41z" fill="#FF9079" p-id="7540"></path><path d="M494.29 372.22l25.822-25.822c6.946-6.946 6.126-18.41-1.696-24.35-48.168-36.588-115.444-36.588-163.612 0-7.822 5.942-8.64 17.404-1.696 24.35l25.822 25.822c31.854-31.858 83.504-31.858 115.36 0z" fill="#FFA730" p-id="7541"></path><path d="M658.268 208.164l33.35-33.35c7.432-7.432 7.232-19.622-0.564-26.672-144.074-130.298-364.818-130.298-508.892 0-7.796 7.05-7.996 19.24-0.564 26.672l33.35 33.35c6.958 6.958 18.092 7.178 25.444 0.642 111.574-99.182 280.854-99.182 392.428 0 7.358 6.536 18.492 6.316 25.448-0.642z" fill="#FF624B" p-id="7542"></path><path d="M858.922 631.868c7.566 39.052-9.982 87.626-48.44 123.552-52.062 48.634-122.676 55.652-157.718 15.676-30.232-34.488-24.088-92.672 11.588-139.228h-75.266c-7.554 15.938-13.092 32.55-16.33 49.41-9.708 50.548 2.162 99.438 32.572 134.126 30.41 34.69 76.35 51.754 126.042 46.814 43.386-4.31 86.724-24.85 122.032-57.834 35.308-32.984 59.422-75.456 67.9-119.59 3.466-18.046 4.166-35.876 2.27-52.926h-64.65z" fill="#FFC34C" p-id="7543"></path><path d="M908.73 590.666c-30.41-34.69-76.35-51.754-126.04-46.816-43.386 4.314-86.726 24.854-122.034 57.836-35.308 32.984-59.422 75.454-67.898 119.59-9.708 50.548 2.162 99.438 32.572 134.126 30.41 34.69 76.35 51.754 126.042 46.814 43.386-4.31 86.724-24.85 122.032-57.834 35.308-32.984 59.422-75.456 67.9-119.59 9.71-50.548-2.164-99.436-32.574-134.126zM830.482 795.42c-52.062 48.634-122.676 55.652-157.718 15.676-35.044-39.976-21.246-111.81 30.814-160.444 52.062-48.634 122.676-55.652 157.72-15.676s21.248 111.81-30.816 160.444z" fill="#FFDF74" p-id="7544"></path><path d="M783.462 826.412c-41.876 17.878-85.49 13.442-110.698-15.316-35.044-39.976-21.246-111.81 30.814-160.444 52.062-48.634 122.676-55.654 157.72-15.676 5.144 5.868 9.206 12.436 12.278 19.502 6.924-26.946 11.38-55.046 13.126-83.974-28.63-20.932-65.176-30.512-104.012-26.652-43.386 4.312-86.726 24.854-122.034 57.836-35.308 32.984-59.422 75.456-67.898 119.59-9.708 50.548 2.162 99.438 32.572 134.126 18.98 21.652 44.01 36.436 72.226 43.29 31.814-19.298 60.74-43.732 85.906-72.282z" fill="#FFD551" p-id="7545"></path><path d="M519.446 973.582h-156.456c-38.66 0-70-31.34-70-70v-59.474h296.456v59.474c0 38.66-31.34 70-70 70z" fill="#FFC34C" p-id="7546"></path><path d="M777.556 488.132H109.384c-16.568 0-30 13.432-30 30v24.882c0 223.612 163.008 404.884 364.086 404.884s364.084-181.274 364.084-404.884v-24.882c0.002-16.568-13.43-30-29.998-30z" fill="#FFDF74" p-id="7547"></path><path d="M543.47 927.898c-201.078 0-364.086-181.274-364.086-404.884v-24.882c0-3.512 0.634-6.868 1.744-10H109.384c-16.568 0-30 13.43-30 30v24.882c0 223.612 163.008 404.884 364.086 404.884 39.882 0 78.258-7.156 114.17-20.334-4.702 0.2-9.422 0.334-14.17 0.334z" fill="#FFD551" p-id="7548"></path><path d="M443.47 897.9c-173.188 0-314.086-159.202-314.086-354.886a4.88 4.88 0 0 1 4.88-4.88h618.41a4.88 4.88 0 0 1 4.88 4.88c0 195.684-140.896 354.886-314.084 354.886z" fill="#A56021" p-id="7549"></path><path d="M129.384 543.012c0 178.134 116.762 326.012 268.346 351.112-124.604-60.602-212.8-196.51-218.068-355.992H134.264a4.88 4.88 0 0 0-4.88 4.88z" fill="#8C4C17" p-id="7550"></path><path d="M574.004 833.204a12 12 0 0 1-4.62-23.08c103.936-43.306 119.876-192.594 120.026-194.096 0.654-6.592 6.528-11.398 13.118-10.764a12 12 0 0 1 10.77 13.104c-0.164 1.674-4.21 41.542-22.458 87.744-24.558 62.182-63.366 105.812-112.222 126.168a12.032 12.032 0 0 1-4.614 0.924z" fill="#F9BB32" p-id="7551"></path><path d="M318.512 759.77m-30 0a30 30 0 1 0 60 0 30 30 0 1 0-60 0Z" fill="#8C4C17" p-id="7552"></path><path d="M397.73 821.384m-30 0a30 30 0 1 0 60 0 30 30 0 1 0-60 0Z" fill="#8C4C17" p-id="7553"></path></svg>